<?xml version="1.0" encoding="UTF-8"?>
<svg width="140px" height="126px" viewBox="0 0 564 503" version="1.1" xmlns="http://www.w3.org/2000/svg" xmlns:xlink="http://www.w3.org/1999/xlink">
    <title>Group</title>
    <g id="Page-1" stroke="none" stroke-width="10" fill="none" fill-rule="evenodd" fill-opacity="0.9" stroke-opacity="0.5">
        <g id="Restler2" transform="translate(-15.000000, -170.000000)" fill="#F1A3A3" stroke="#F1A3A3">
            <g id="path-1-link" transform="translate(25.000000, 180.000000)">
                <path d="M273.095617,0 C296.570219,0 318.147097,3.137694 337.825089,9.413083 C357.612528,15.753727 371.560988,24.091174 379.670466,34.425423 L380.009645,34.86327 L450.898294,34.86327 C479.989369,36.800506 503.135094,50.145003 520.334307,74.897925 C536.10064,97.559051 543.983232,124.868612 543.983232,156.82661 C543.983232,175.500539 542.70723,192.796207 540.148266,208.714776 C537.582329,224.627535 531.917048,238.030138 523.152421,248.922586 C514.547152,259.61813 503.271244,267.449234 489.327995,272.415898 L488.550626,272.688877 C476.588445,276.835092 465.87436,278.949694 456.411093,279.031322 L455.720891,279.033667 C454.344952,279.0311 452.995802,278.984994 451.673449,278.895345 L451.014505,278.846892 L392.792844,278.90616 L392.493688,402.495946 C398.65151,402.721146 405.259039,402.508262 412.316276,401.857292 L413.743393,401.724045 L413.743393,401.724045 L416.50631,401.456505 C419.209025,401.188318 421.732488,400.918298 424.088882,400.647386 L426.390036,400.376211 C427.513219,400.24051 428.59565,400.104664 429.638851,399.968792 L431.673397,399.697046 C432.334445,399.606475 432.978508,399.515927 433.606038,399.425438 L435.43948,399.154176 L435.43948,399.154176 L437.176431,398.883472 C437.739633,398.793352 438.287204,398.703361 438.819596,398.613532 L440.371683,398.344567 C443.135343,397.852487 445.453466,397.366375 447.401113,396.892035 L448.427177,396.634506 C454.203484,395.139472 456.367283,393.774291 457.336517,392.725871 L457.49142,392.54928 L457.49142,392.54928 L457.625627,392.379104 L457.625627,392.379104 L457.741844,392.215552 C457.759865,392.188857 457.777249,392.162447 457.794052,392.136325 L457.88836,391.983103 L457.88836,391.983103 L458.046016,391.698309 L458.046016,391.698309 L458.212951,391.385072 L458.212951,391.385072 L458.279034,391.27375 L458.279034,391.27375 L458.348783,391.170726 L458.348783,391.170726 L458.424906,391.07621 L458.424906,391.07621 L458.510108,390.990411 L458.510108,390.990411 L458.520354,390.985428 L458.520354,390.985428 L458.601379,390.910669 L458.601379,390.910669 L458.826708,390.671398 L458.826708,390.671398 L459.186028,390.272534 L459.186028,390.272534 L460.137061,389.190304 L460.137061,389.190304 C460.274869,389.036369 460.642269,388.97049 461.239271,388.992645 L461.556905,389.011058 C461.613033,389.01535 461.670756,389.020252 461.730073,389.025767 L462.105109,389.066187 C462.170803,389.074147 462.238093,389.082717 462.306977,389.091899 L462.739414,389.154326 L462.739414,389.154326 L463.21012,389.231422 L463.21012,389.231422 L463.719094,389.323188 L463.719094,389.323188 L464.266337,389.429623 L464.266337,389.429623 L464.851849,389.550725 L464.851849,389.550725 L465.801873,389.759881 L465.801873,389.759881 L466.48306,389.917651 L466.48306,389.917651 L467.576596,390.181805 L467.576596,390.181805 L468.25667,390.351742 L469.231594,390.601696 L469.231594,390.601696 L470.261385,390.872671 L470.261385,390.872671 L471.346043,391.164669 L471.346043,391.164669 L472.485568,391.477686 L472.485568,391.477686 L474.297734,391.986623 L474.297734,391.986623 L475.825397,392.424653 L475.825397,392.424653 L477.053544,392.781909 C477.262077,392.842923 477.472532,392.904673 477.684907,392.967158 C484.6918,395.022504 493.587651,394.77764 504.37246,392.232269 L505.625244,391.928364 L505.625244,391.928364 L506.894794,391.604039 C507.746749,391.381016 508.609881,391.144381 509.484191,390.894133 L510.804039,390.508551 C511.246782,390.37662 511.69232,390.241287 512.140652,390.10255 L513.494031,389.67613 C514.401873,389.385043 515.320892,389.080344 516.251088,388.762031 L517.654765,388.274352 L517.654765,388.274352 L519.075208,387.766254 C520.980309,387.075176 522.930119,386.329645 524.924638,385.529661 C509.003744,403.154206 486.943429,419.385382 458.74253,434.222028 L457.055682,435.102606 L457.055682,435.102606 L455.383847,435.964081 L455.383847,435.964081 L453.727026,436.806454 L453.727026,436.806454 L452.085219,437.629725 C451.812836,437.765345 451.541078,437.900169 451.269945,438.034197 L449.650659,438.828814 L449.650659,438.828814 L448.046386,439.604328 L448.046386,439.604328 L446.457127,440.36074 L446.457127,440.36074 L444.882882,441.098049 L444.882882,441.098049 L443.323651,441.816255 C442.80641,442.052473 442.291671,442.285508 441.779434,442.515358 L440.250231,443.195359 C439.742999,443.418842 439.23827,443.639141 438.736043,443.856256 L437.236868,444.498051 L437.236868,444.498051 L435.752708,445.120743 L435.752708,445.120743 L434.283562,445.724331 L434.283562,445.724331 L432.829431,446.308816 L432.829431,446.308816 L431.390313,446.874198 L431.390313,446.874198 L429.966211,447.420477 C429.730112,447.509932 429.494638,447.59859 429.25979,447.686453 L427.858209,448.204077 L427.858209,448.204077 L426.471643,448.702597 L426.471643,448.702597 L425.100092,449.182014 L425.100092,449.182014 L423.743555,449.642328 C423.293879,449.792582 422.846705,449.939652 422.402033,450.083538 L421.075526,450.505644 C420.63586,450.643162 420.198696,450.777497 419.764034,450.908647 L418.467557,451.292546 C418.037901,451.417328 417.610747,451.538927 417.186095,451.657341 L415.919648,452.003032 C407.316896,454.299985 399.765828,455.258868 393.266526,454.879602 L392.792844,454.849463 L392.367,454.869 L392.301236,482.021719 L331.871568,482.079825 C332.389653,481.195347 332.849728,480.028866 333.256536,478.606628 L333.427635,477.981516 C333.511568,477.661207 333.593086,477.329326 333.672236,476.986132 L333.827391,476.284735 L333.827391,476.284735 L333.976315,475.553629 L333.976315,475.553629 L334.119089,474.793271 C334.142377,474.664133 334.165413,474.533795 334.188197,474.402267 L334.321903,473.598894 C334.34369,473.462644 334.365229,473.325223 334.386523,473.18664 L334.511347,472.341285 L334.511347,472.341285 L334.630354,471.468515 L334.630354,471.468515 L334.743627,470.56879 L334.743627,470.56879 L334.851249,469.642568 L334.851249,469.642568 L334.953301,468.69031 L334.953301,468.69031 L335.096121,467.214108 L335.096121,467.214108 L335.184616,466.198766 L335.184616,466.198766 L335.307487,464.630091 L335.307487,464.630091 L335.418762,463.007997 L335.418762,463.007997 L335.486642,461.89769 L335.486642,461.89769 L335.579213,460.190011 L335.579213,460.190011 L335.660934,458.433045 L335.660934,458.433045 L335.732087,456.628344 L335.732087,456.628344 L335.79295,454.777457 L335.79295,454.777457 L335.843804,452.881932 L335.843804,452.881932 L335.872283,451.594216 L335.872283,451.594216 L335.907077,449.627741 L335.907077,449.627741 C329.278849,448.437475 321.368744,445.600426 312.176553,441.117211 L310.7145,440.395655 C310.469048,440.273115 310.222709,440.149436 309.975482,440.024617 L308.481465,439.262021 C308.230687,439.132642 307.97902,439.002123 307.726466,438.870464 C303.785401,436.811257 299.917936,434.508754 295.967453,431.997555 L294.382461,430.982026 C294.117434,430.810944 293.851945,430.638955 293.585948,430.466068 L291.983496,429.418071 L291.983496,429.418071 L290.36662,428.349043 L290.36662,428.349043 L287.909389,426.707146 L287.909389,426.707146 L277.555451,419.710652 L277.555451,419.710652 L275.726036,418.482732 L275.726036,418.482732 L273.861037,417.238455 L273.861037,417.238455 L271.958225,415.978315 L271.958225,415.978315 L270.015373,414.702803 L270.015373,414.702803 L269.028236,414.059437 C267.663986,413.172575 266.229379,412.162442 264.724415,411.029038 L263.710682,410.255172 C263.539989,410.123151 263.368428,409.989608 263.195998,409.854543 L262.150995,409.02589 C261.095569,408.178975 260.008873,407.277272 258.890907,406.320782 L257.762517,405.34603 L257.762517,405.34603 L256.613281,404.334752 C256.420005,404.163162 256.225859,403.99005 256.030846,403.815417 L254.85034,402.749352 L254.85034,402.749352 L253.648987,401.646762 L253.648987,401.646762 L252.426788,400.507648 C252.015914,400.121856 251.601565,399.729976 251.183742,399.332009 L249.91985,398.119844 C249.707464,397.914773 249.494209,397.70818 249.280086,397.500065 L247.984923,396.233114 L247.984923,396.233114 L246.668914,394.929637 L246.668914,394.929637 L245.332059,393.589636 L245.332059,393.589636 L243.974356,392.21311 L243.974356,392.21311 L242.595807,390.800058 L242.595807,390.800058 L241.196412,389.350482 L241.196412,389.350482 L239.77617,387.864381 L239.77617,387.864381 L238.335081,386.341755 C238.093162,386.084941 237.850375,385.826604 237.606719,385.566746 L236.13436,383.989332 L236.13436,383.989332 L234.641155,382.375394 C234.39055,382.103361 234.139077,381.829805 233.886735,381.554728 L232.362259,379.886003 L232.362259,379.886003 L230.816937,378.180752 L230.816937,378.180752 L229.250769,376.438977 C228.988004,376.145638 228.72437,375.850776 228.459867,375.554393 L226.862429,373.75783 C226.594452,373.455359 226.325606,373.151367 226.055892,372.845852 L224.427183,370.994502 L224.427183,370.994502 L222.777628,369.106627 L222.777628,369.106627 L221.107227,367.182227 L221.107227,367.182227 L219.415978,365.221303 L219.415978,365.221303 L217.703883,363.223853 L217.703883,363.223853 L215.970942,361.189879 L215.970942,361.189879 L214.217153,359.119379 L214.217153,359.119379 L212.442519,357.012355 L212.442519,357.012355 L209.741479,353.783335 L209.741479,353.783335 L207.914727,351.584998 L207.914727,351.584998 L206.067129,349.350137 L206.067129,349.350137 L204.198685,347.078751 L204.198685,347.078751 L201.35693,343.603187 L201.35693,343.603187 L199.436369,341.240488 L199.436369,341.240488 L197.494961,338.841265 L197.494961,338.841265 L197.518014,348.155755 L197.518014,348.155755 L197.531006,357.511341 L197.531006,357.511341 L197.527084,369.661903 L197.527084,369.661903 L197.492264,380.817515 L197.492264,380.817515 L197.436057,388.751955 L197.436057,388.751955 L197.373036,393.926755 L197.373036,393.926755 L197.326111,396.569696 L197.326111,396.569696 L197.329744,398.025407 L197.329744,398.025407 L197.340643,399.512086 L197.340643,399.512086 L197.358807,401.029735 L197.358807,401.029735 L197.399676,403.364279 L197.399676,403.364279 L197.45689,405.768511 L197.45689,405.768511 L197.530449,408.242433 L197.530449,408.242433 L197.588568,409.930433 L197.588568,409.930433 L197.65395,411.649408 L197.65395,411.649408 L197.765642,414.285954 L197.765642,414.285954 L197.893675,416.992201 L197.893675,416.992201 L198.038048,419.768152 L198.038048,419.768152 L198.19876,422.613811 L198.19876,422.613811 L198.314977,424.549645 L198.314977,424.549645 L198.502918,427.51149 L198.502918,427.51149 L198.778917,431.569065 L198.778917,431.569065 L199.004973,434.693587 L199.004973,434.693587 L199.164751,436.815336 L199.164751,436.815336 L199.331788,438.968075 L199.331788,438.968075 L199.595954,442.25529 L199.595954,442.25529 L199.876451,445.612237 L199.876451,445.612237 L200.451943,452.173165 L200.451943,452.173165 L200.938741,457.428807 L200.938741,457.428807 L201.252702,460.656859 L201.252702,460.656859 L201.507875,463.178414 L201.507875,463.178414 L201.903937,466.894315 L201.903937,466.894315 L202.143841,469.017638 L202.143841,469.017638 L202.423974,471.36345 L202.423974,471.36345 L202.650958,473.149817 L202.650958,473.149817 L202.915586,475.091287 L202.915586,475.091287 L203.129649,476.540707 L203.129649,476.540707 L203.337839,477.836972 L203.337839,477.836972 L203.459934,478.541218 L203.459934,478.541218 L203.579915,479.190329 L203.579915,479.190329 L203.697782,479.784306 L203.697782,479.784306 L203.813535,480.323149 L203.813535,480.323149 L203.964582,480.955844 L203.964582,480.955844 L204.038697,481.235436 L204.038697,481.235436 L204.111871,481.490525 L204.111871,481.490525 L204.219872,481.827215 L204.219872,481.827215 L204.290697,482.021046 L204.290697,482.021046 L204.360583,482.190374 L204.360583,482.190374 L204.429529,482.335199 C204.452355,482.379391 204.475024,482.419498 204.497536,482.455522 L204.531186,482.506495 L151.074172,482.506495 L151.074172,278.90616 L149.845531,278.867614 L149.845531,278.867614 L148.19,278.828616 L148.19,278.828616 L145.855155,278.789937 L145.855155,278.789937 L142.702901,278.756984 L142.702901,278.756984 L138.606384,278.734941 L138.606384,278.734941 L134.135689,278.727976 L134.135689,278.727976 L129.325988,278.733477 L129.325988,278.733477 L121.835344,278.758799 L121.835344,278.758799 L106.958752,278.835334 L106.958752,278.835334 L104.936543,278.897194 L104.936543,278.897194 L100.921157,279.026077 L100.921157,279.026077 L97.7754646,279.11048 L97.7754646,279.11048 L95.4031798,279.161247 L95.4031798,279.161247 L93.1591319,279.197116 L93.1591319,279.197116 L91.0433186,279.218085 L91.0433186,279.218085 L89.5406112,279.224033 L89.5406112,279.224033 L88.1100335,279.221597 L88.1100335,279.221597 L86.3147966,279.205308 L86.3147966,279.205308 L85.0525178,279.183307 L85.0525178,279.183307 L83.8623656,279.15292 L83.8623656,279.15292 L83.1090005,279.128003 L83.1090005,279.128003 L82.0390569,279.083637 L82.0390569,279.083637 L81.3658301,279.049398 L81.3658301,279.049398 L80.4160926,278.99105 L80.4160926,278.99105 L79.5384773,278.92431 L79.5384773,278.92431 L78.993468,278.875155 L78.993468,278.875155 L78.4805123,278.82227 L78.4805123,278.82227 L77.99961,278.765655 L77.99961,278.765655 L77.5507608,278.70531 L77.5507608,278.70531 L76.1987337,278.504352 L76.1987337,278.504352 L75.0187225,278.321159 L75.0187225,278.321159 L73.7983224,278.124159 L73.7983224,278.124159 L72.5375335,277.91335 L72.5375335,277.91335 L70.5706208,277.571241 L70.5706208,277.571241 L68.5128331,277.198053 L68.5128331,277.198053 L66.3641705,276.79378 C66.1203816,276.747134 65.8749098,276.699912 65.6277551,276.652114 L63.3579258,276.206387 L63.3579258,276.206387 L60.9972214,275.729563 L60.9972214,275.729563 L59.3729323,275.394402 L59.3729323,275.394402 L56.8607696,274.865739 L56.8607696,274.865739 L55.1355084,274.496014 L55.1355084,274.496014 L53.3698582,274.11246 L53.3698582,274.11246 C43.5442266,271.968369 33.8801282,264.792346 24.3752387,252.584391 C14.8703492,240.375274 8.4299411,225.61649 5.0551766,208.308038 C1.6827362,190.993776 0,173.852669 0,156.884715 C0,122.524638 9.238769,93.684579 27.7163021,70.3657 C36.2380473,59.558086 46.0973801,51.094446 57.2919761,44.973618 C68.3900654,38.912678 80.005896,35.557104 92.140555,34.903637 L92.968722,34.86327 L166.239695,34.86327 C174.258247,24.365939 188.339522,15.882544 208.482357,9.413083 C228.160349,3.137694 249.698877,0 273.095617,0 Z M331.213507,302.024197 L318.382,302.025 L318.359763,302.032129 C317.941799,320.064946 320.873219,337.761821 327.151837,355.123846 L327.540424,356.186409 C329.384895,361.09713 331.353656,365.542623 333.445907,369.522486 L332.49693,350.369897 L332.49693,350.369897 L332.070508,341.315277 L332.070508,341.315277 L331.89397,337.351555 L331.89397,337.351555 L331.699587,332.738197 L331.699587,332.738197 L331.581903,329.756667 L331.581903,329.756667 L331.449678,326.143779 L331.449678,326.143779 L331.356834,323.350391 L331.356834,323.350391 L331.258335,319.987486 L331.258335,319.987486 L331.180886,316.776256 L331.180886,316.776256 L331.135192,314.32262 L331.135192,314.32262 L331.110965,312.55275 L331.110965,312.55275 L331.095743,310.845379 L331.095743,310.845379 L331.089884,309.202482 L331.089884,309.202482 L331.093743,307.626033 L331.093743,307.626033 L331.107678,306.118005 L331.107678,306.118005 L331.122742,305.151641 L331.122742,305.151641 L331.142549,304.217149 L331.142549,304.217149 L331.181382,302.87645 L331.181382,302.87645 L331.213507,302.024197 L331.213507,302.024197 Z M39.7173652,77.95642 C30.1497218,88.260841 23.0411011,100.946422 18.3926651,116.01549 C14.479844,128.682478 12.5240146,142.104837 12.5240146,156.282567 C12.5240146,183.708339 19.4002136,207.241046 33.1514494,226.880688 C48.0264446,248.107771 67.8020534,259.555707 92.477114,261.221009 L150.582564,261.221009 C134.902227,192.919215 134.902227,123.192675 150.582564,52.041389 C100.728088,43.287222 63.7730215,51.925178 39.7173652,77.95642 Z M450.406686,52.041389 L392.301236,52.041389 C407.265632,119.573879 407.415276,188.588186 392.750168,259.08431 L392.301236,261.221009 L450.406686,261.221009 C475.50824,259.555707 495.43841,248.107771 510.197194,226.880688 C523.716008,207.435118 530.475996,183.902411 530.475996,156.282567 C530.475996,126.570926 522.63176,101.759899 506.943289,81.849485 C499.622002,72.552613 491.138606,65.347537 481.493102,60.234258 C471.693036,55.004767 461.33051,52.273811 450.406686,52.041389 Z" id="Shape"></path>
            </g>
        </g>
    </g>
</svg>
